/* XPM */
static char *result[] = {
/* columns rows colors chars-per-pixel */
"50 50 203 2 ",
"   c gray10",
".  c #1B1B1B",
"X  c gray11",
"o  c #1D1D1D",
"O  c #1E1E1E",
"+  c gray12",
"@  c #202020",
"#  c gray13",
"$  c #222222",
"%  c #232323",
"&  c gray14",
"*  c #252525",
"=  c gray15",
"-  c #272727",
";  c #282828",
":  c gray16",
">  c #2A2A2A",
",  c gray17",
"<  c #2C2C2C",
"1  c #2D2D2D",
"2  c gray18",
"3  c #2F2F2F",
"4  c gray19",
"5  c #313131",
"6  c #323232",
"7  c gray20",
"8  c #343434",
"9  c #353535",
"0  c gray21",
"q  c #373737",
"w  c gray22",
"e  c #393939",
"r  c #3A3A3A",
"t  c gray23",
"y  c #3C3C3C",
"u  c gray24",
"i  c #3E3E3E",
"p  c #3F3F3F",
"a  c gray25",
"s  c #414141",
"d  c gray26",
"f  c #434343",
"g  c #444444",
"h  c gray27",
"j  c #464646",
"k  c gray28",
"l  c #484848",
"z  c #494949",
"x  c gray29",
"c  c #4B4B4B",
"v  c #4C4C4C",
"b  c gray30",
"n  c #4E4E4E",
"m  c gray31",
"M  c #505050",
"N  c #515151",
"B  c gray32",
"V  c #535353",
"C  c gray33",
"Z  c #555555",
"A  c #565656",
"S  c gray34",
"D  c #585858",
"F  c gray35",
"G  c #5A5A5A",
"H  c #5B5B5B",
"J  c gray36",
"K  c #5D5D5D",
"L  c gray37",
"P  c #5F5F5F",
"I  c #606060",
"U  c gray38",
"Y  c #626262",
"T  c gray39",
"R  c #656565",
"E  c gray40",
"W  c #676767",
"Q  c #686868",
"!  c DimGray",
"~  c #6A6A6A",
"^  c gray42",
"/  c #6C6C6C",
"(  c #6D6D6D",
")  c gray43",
"_  c #6F6F6F",
"`  c gray44",
"'  c #717171",
"]  c #727272",
"[  c gray45",
"{  c #747474",
"}  c #767676",
"|  c #777777",
" . c gray47",
".. c #797979",
"X. c gray48",
"o. c #7B7B7B",
"O. c #7C7C7C",
"+. c gray49",
"@. c #7E7E7E",
"#. c gray50",
"$. c #818181",
"%. c #838383",
"&. c #848484",
"*. c gray52",
"=. c #868686",
"-. c gray53",
";. c #888888",
":. c #898989",
">. c gray54",
",. c #8B8B8B",
"<. c gray55",
"1. c #8D8D8D",
"2. c #8E8E8E",
"3. c gray56",
"4. c #909090",
"5. c gray57",
"6. c #929292",
"7. c #939393",
"8. c gray58",
"9. c #959595",
"0. c gray59",
"q. c #979797",
"w. c #989898",
"e. c #9A9A9A",
"r. c #9B9B9B",
"t. c gray61",
"y. c #9D9D9D",
"u. c gray62",
"i. c #9F9F9F",
"p. c #A0A0A0",
"a. c gray63",
"s. c #A2A2A2",
"d. c gray64",
"f. c #A4A4A4",
"g. c #A5A5A5",
"h. c #A7A7A7",
"j. c gray66",
"k. c #A9A9A9",
"l. c #AAAAAA",
"z. c gray67",
"x. c #ACACAC",
"c. c gray68",
"v. c #AEAEAE",
"b. c #AFAFAF",
"n. c gray69",
"m. c #B1B1B1",
"M. c #B2B2B2",
"N. c gray70",
"B. c #B4B4B4",
"V. c gray71",
"C. c #B6B6B6",
"Z. c #B7B7B7",
"A. c gray72",
"S. c #B9B9B9",
"D. c gray73",
"F. c #BBBBBB",
"G. c #BCBCBC",
"H. c gray74",
"J. c gray",
"K. c gray75",
"L. c #C0C0C0",
"P. c #C1C1C1",
"I. c gray76",
"U. c #C3C3C3",
"Y. c gray77",
"T. c #C5C5C5",
"R. c #C6C6C6",
"E. c gray78",
"W. c #C8C8C8",
"Q. c gray79",
"!. c #CBCBCB",
"~. c gray80",
"^. c #CDCDCD",
"/. c gray81",
"(. c gray82",
"). c #D2D2D2",
"_. c LightGray",
"`. c gray83",
"'. c #D5D5D5",
"]. c gray84",
"[. c #D7D7D7",
"{. c gray85",
"}. c gray86",
"|. c #DDDDDD",
" X c gray87",
".X c #DFDFDF",
"XX c gray88",
"oX c #E1E1E1",
"OX c gray89",
"+X c #E4E4E4",
"@X c #E7E7E7",
"#X c gray91",
"$X c gray92",
"%X c gray94",
"&X c #F1F1F1",
"*X c gray95",
"=X c gray96",
"-X c #F8F8F8",
";X c #FBFBFB",
":X c gray99",
">X c #FEFEFE",
",X c white",
"<X c None",
/* pixels */
"<X<X<X<X<X<X<X<X<X<X<X<X<X<X<X<X<X<X<X<X                    <X<X<X<X<X<X<X<X<X<X<X<X<X<X<X<X<X<X<X<X",
"<X<X<X<X<X<X<X<X<X<X<X<X<X<X<X<X          o 3 r a a =               <X<X<X<X<X<X<X<X<X<X<X<X<X<X<X<X",
"<X<X<X<X<X<X<X<X<X<X<X<X<X<X      # a ) 7 o.A.J.P.P.v.} 3 .             <X<X<X<X<X<X<X<X<X<X<X<X<X<X",
"<X<X<X<X<X<X<X<X<X<X<X<X    . q ~ 9.,.a ..U.R.R.R.R.R.R.J.,.a o             <X<X<X<X<X<X<X<X<X<X<X<X",
"<X<X<X<X<X<X<X<X<X<X<X      : g 4 X   H R.R.R.R.R.R.R.R.R.R.U.8.m o           <X<X<X<X<X<X<X<X<X<X<X",
"<X<X<X<X<X<X<X<X<X                    d R.R.R.R.R.R.R.R.R.R.R.R.R.b.] -           <X<X<X<X<X<X<X<X<X",
"<X<X<X<X<X<X<X<X                      r R.R.R.R.R.R.R.R.R.R.R.R.R.R.R.8.D w.*.q     <X<X<X<X<X<X<X<X",
"<X<X<X<X<X<X<X                        U R.R.R.R.R.R.R.R.R.R.R.R.R.R.R.8.! R.R.G.l     <X<X<X<X<X<X<X",
"<X<X<X<X<X<X                        . g 2.B.T.R.R.R.R.R.R.R.R.R.R.R.R.7.~ R.R.R.D.v     <X<X<X<X<X<X",
"<X<X<X<X<X    #                   ; 6.l.) x z o.c.T.R.R.R.R.R.R.R.K.Z.&.~ R.R.R.R.D.l     <X<X<X<X<X",
"<X<X<X<X<X  7 7               . x L..X.X.X|.J.&.l B u.U.R.R.m.%.x 1 & o g C.R.R.R.R.G.8   <X<X<X<X<X",
"<X<X<X<X  O '               . ( '..X.X.X.X.X X^.T.9.l G 7.K -             e n.R.R.R.R.1.o   <X<X<X<X",
"<X<X<X    L >             & 6. X.X.X.X.X.X.X.X|.E.R.Y.*.o                   0 M.R.R.R.m.S     <X<X<X",
"<X<X<X  2 i s...5       i F..X.X.XOX@XoX.X.X.X.X).R.R.V.#                     f K.R.R.S.=.:   <X<X<X",
"<X<X  . d Q  X.X!.*.> S /..X.X.X#X:X>X-XXX.X.X.X}.R.R.B.#                     . | R.R.G.,.L .   <X<X",
"<X<X  > 8 U..X.X.X.X#.9..X.X.X.X-X,X,X,X$X.X.X.X.XQ.R.A.&                       # f.R.G.,.=.3   <X<X",
"<X    7 / '..X.X.X.X+.w..X.X.X&X>X,X,X,X#X.X.X.X.X~.R.K.,                         k P.D.,.,.D     <X",
"<X  O 5 h.]..X.X.X.X#.q..X.XOX>X,X,X,X*X.X.X.X.X.X^.R.T.r                         O -.C.,.,.@.+   <X",
"<X  # c R.]..X.X.X.X;.5..X.XOX>X,X,X=X.X.X.X.X.X.X~.R.R.K                           1 e ~ ,.>.4   <X",
"<X  . &.R._..X.X.X.X8.=..X.X.X%X;X-X+X.X.X.X.X.X.XQ.R.R.$.                        - x.>.g q R $   <X",
"    & Z.R.~..X.X.X.Xd.} .X.X.X.X.X.X.X.X.X.X.X.X|.R.R.R.u.                        W R.4.,.X.e       ",
"    j T.R.R.}..X.X.XV.P .X.X.X.X.X.X.X.X.X.X.X.X`.R.R.B.Y o                     - N.A.,.,.,.P       ",
"    +.R.R.R./..X.X.XE.j .X.X.X.X.X.X.X.X.X.X.X XQ.H.{ p +.h.j X                  .R.d.,.,.,.F       ",
"    +.R.R.R.R.[..X.X_.p }..X.X.X.X.X.X.X.X.X.X(.v.d ! C.R.R.I.-.9             6 F.L.5.,.,.,.V       ",
"    I R.R.R.R.W.{..X{.k x ..k.'..X.X.X.X.X.X).,.7 p.R.R.R.R.R.R.U.9.z X     # r.R.z.,.,.,.,.b       ",
"    p R.R.R.R.R.E.'.r.        o h 1.)..X|.R.A B H.R.R.R.R.R.R.R.R.R.R.Z.@.> o.R.L.3.,.,.,.,.l       ",
"    < K.R.R.R.R.R.H.6               $ } e.a +.T.R.R.R.R.R.R.R.R.R.R.R.R.R.,.Q R.a.,.,.,.,.,.g       ",
"    # V.R.R.R.R.R.&.                    - 9.T.R.R.R.R.R.R.R.R.R.R.R.R.R.R.B.k B.1.,.,.,.,.,.s       ",
"      3.R.R.R.R.S.2                     . i.R.R.R.R.R.R.R.R.R.R.R.R.R.R.R.R.t =.,.,.,.,.,.,.f       ",
"      2 f.R.R.R.`                         O.R.R.R.R.R.R.R.R.R.R.R.R.R.R.R.T.d  .,.,.,.,.,.,.k       ",
"<X  U f.i #.T.k.-                         A R.R.R.R.R.R.R.R.R.R.R.R.R.R.T.t.j ' ,.,.,.,.,.*.p     <X",
"<X  a T.G.I 0 u                           y R.R.R.R.R.R.R.R.R.R.R.R.R.I.r.,.x ) ,.,.,.,.,.' p     <X",
"<X  # M.R.R.S.A                           5 T.R.R.R.R.R.R.R.R.R.R.R.H.0.,.,.z ` ,.,.,.,.;.D a     <X",
"<X    | R.R.R.g.*                         5 Y.R.R.R.R.R.R.R.R.R.T.M.5.,.,.,.f [ ,.,.,.,.{ m >     <X",
"<X<X  e J.R.R.R.T                         0 R.R.R.R.R.R.R.R.R.F.y.<.,.,.,.,.t | ,.,.,.-.z & .   <X<X",
"<X<X  . ^ n.J.T.G.t                       x R.R.R.R.R.R.Y.A.y.<.,.,.,.,.:.I O , v W } a 1 w .   <X<X",
"<X<X<X  : =.2.r.j.q.%                     R R.R.R.R.G.k.w.<.,.,.,.,.,.*.x .           u N $   <X<X<X",
"<X<X<X    S ,.,.,.,._ %                   ` N.l.y.5.,.,.,.,.,.,.,.,.X.2             = C r     <X<X<X",
"<X<X<X<X  o } ,.,.,.,.X.7             . y i w T *.,.,.,.,.,.,.,.;.K @               u x X   <X<X<X<X",
"<X<X<X<X<X  1 *.,.,.,.,.*.f 3 t p l H ] ;.:.{ c 7 c ] *.,.,.,.@.t X               % b &   <X<X<X<X<X",
"<X<X<X<X<X    e %.,.,.,.,.A T ,.,.,.,.,.,.,.,.,.&.^ x 9 e l M $                 . p >     <X<X<X<X<X",
"<X<X<X<X<X<X    t %.,.,.,.V R ,.,.,.,.,.,.,.,.,.,.,.,.;.+.! 1                   1 ,     <X<X<X<X<X<X",
"<X<X<X<X<X<X<X    e *.,.,.V R ,.,.,.,.,.,.,.,.,.,.,.,.,.,.,.h                 O *     <X<X<X<X<X<X<X",
"<X<X<X<X<X<X<X<X    ; L +.c U ,.,.,.,.,.,.,.,.,.,.,.,.,.,.,.B                       <X<X<X<X<X<X<X<X",
"<X<X<X<X<X<X<X<X<X    X r $ + I &.,.,.,.,.,.,.,.,.,.,.,.,.,.U                     <X<X<X<X<X<X<X<X<X",
"<X<X<X<X<X<X<X<X<X<X<X          3 Z ! [ o.$.=.:.,.,.>.&.E g ; 2 4 3 , X       <X<X<X<X<X<X<X<X<X<X<X",
"<X<X<X<X<X<X<X<X<X<X<X<X          % c C C S F H J H j 1 6 h M C n r * .     <X<X<X<X<X<X<X<X<X<X<X<X",
"<X<X<X<X<X<X<X<X<X<X<X<X<X<X        # r h v m N m > 2 l v h r ; o       <X<X<X<X<X<X<X<X<X<X<X<X<X<X",
"<X<X<X<X<X<X<X<X<X<X<X<X<X<X<X<X          X $ * $ X = $ X           <X<X<X<X<X<X<X<X<X<X<X<X<X<X<X<X",
"<X<X<X<X<X<X<X<X<X<X<X<X<X<X<X<X<X<X<X<X                    <X<X<X<X<X<X<X<X<X<X<X<X<X<X<X<X<X<X<X<X"
};
