/* XPM */
static char *result[] = {
/* columns rows colors chars-per-pixel */
"50 50 209 2 ",
"   c #2E3936",
".  c #2F3A37",
"X  c #393C35",
"o  c #303B38",
"O  c #353B38",
"+  c #313C39",
"@  c #323D3A",
"#  c #333E3B",
"$  c #713928",
"%  c #7B3433",
"&  c #793737",
"*  c #7B3F33",
"=  c #35403D",
"-  c #35413E",
";  c #54452A",
":  c #5E422D",
">  c #564336",
",  c #594A3E",
"<  c #61412B",
"1  c #60422C",
"2  c #6C452F",
"3  c #694630",
"4  c #6B4630",
"5  c #6A4730",
"6  c #634E3F",
"7  c #704634",
"8  c #7F4D37",
"9  c #7F4E37",
"0  c #774B38",
"q  c #724C3D",
"w  c #7B4F39",
"e  c #794D3A",
"r  c #7F4E38",
"t  c #7E4F38",
"y  c #7D5039",
"u  c #7C513A",
"i  c #364340",
"p  c #3A4542",
"a  c #394643",
"s  c #384744",
"d  c #394744",
"f  c #414647",
"g  c #474941",
"h  c #4C5152",
"j  c #5D5350",
"k  c #5F5251",
"l  c #595550",
"z  c #595652",
"x  c #525759",
"c  c #555459",
"v  c #56555A",
"b  c #5C5A58",
"n  c #5B5E59",
"m  c #6F4547",
"M  c #774240",
"N  c #6E514E",
"B  c #615E5C",
"V  c #70674A",
"C  c #625F61",
"Z  c #605E64",
"A  c #66646B",
"S  c #6B6668",
"D  c #686A69",
"F  c #6C686A",
"G  c #6A686E",
"H  c #706363",
"J  c #70666D",
"K  c #6B6970",
"L  c #716E75",
"P  c #72717A",
"I  c #757279",
"U  c #7C777F",
"Y  c #8F3232",
"T  c #823A33",
"R  c #8C3833",
"E  c #853938",
"W  c #903333",
"Q  c #913333",
"!  c #953636",
"~  c #973737",
"^  c #983838",
"/  c #9D393B",
"(  c #9E3B3B",
")  c #A23D3D",
"_  c #A33E3E",
"`  c #A43F3F",
"'  c #A53F3F",
"]  c #804D36",
"[  c #804D37",
"{  c #834F37",
"}  c #884B38",
"|  c #9F463F",
" . c #92493B",
".. c #93493C",
"X. c #845037",
"o. c #805039",
"O. c #81513F",
"+. c #82543F",
"@. c #885239",
"#. c #8B533A",
"$. c #8C543A",
"%. c #8F563B",
"&. c #AD5A3E",
"*. c #864C4A",
"=. c #9F4A4C",
"-. c #835240",
";. c #8E5141",
":. c #875841",
">. c #865844",
",. c #885841",
"<. c #895A43",
"1. c #8C5B44",
"2. c #8D5946",
"3. c #815B4E",
"4. c #815D51",
"5. c #A64040",
"6. c #AA4242",
"7. c #AA4343",
"8. c #AB4343",
"9. c #A84442",
"0. c #A74A4B",
"q. c #AE5050",
"w. c #8D604D",
"e. c #93624D",
"r. c #95644E",
"t. c #99614E",
"y. c #8C6251",
"u. c #9E6451",
"i. c #9F6652",
"p. c #A36B56",
"a. c #A57159",
"s. c #A9735C",
"d. c #AB765E",
"f. c #B47A59",
"g. c #895F64",
"h. c #B55D67",
"j. c #836E6C",
"k. c #8C7870",
"l. c #81767B",
"z. c #8A757D",
"x. c #947D73",
"c. c #A66265",
"v. c #AC7460",
"b. c #B66772",
"n. c #C14B53",
"m. c #D45460",
"M. c #C67767",
"N. c #B29832",
"B. c #B39932",
"V. c #A7974D",
"C. c #96837F",
"Z. c #B58069",
"A. c #B7816C",
"S. c #AF9E60",
"D. c #BD8871",
"F. c #D98865",
"G. c #C9957F",
"H. c #E2837A",
"J. c #DBA46C",
"K. c #E2AE7B",
"L. c #EBC659",
"P. c #817B83",
"I. c #837D86",
"U. c #847E87",
"Y. c #4A8E99",
"T. c #4A8F99",
"R. c #798183",
"E. c #86818A",
"W. c #89858F",
"Q. c #85909E",
"!. c #969B9F",
"~. c #8791A3",
"^. c #8A95A6",
"/. c #8D99A2",
"(. c #8A95AC",
"). c #8E98B3",
"_. c #929CB0",
"`. c #97A4AE",
"'. c #99AAB4",
"]. c #9BADB7",
"[. c #98A1B8",
"{. c #D2BA9A",
"}. c #D3BA9A",
"|. c #EBBE92",
" X c #EAC9A9",
".X c #96A0C7",
"XX c #9FA8C2",
"oX c #9CA6D6",
"OX c #9EA8DA",
"+X c #A2AAC5",
"@X c #A6B8C7",
"#X c #A8B0CD",
"$X c #B8B4C3",
"%X c #ADB4D4",
"&X c #AFB7D7",
"*X c #A2ABE3",
"=X c #A5AEE8",
"-X c #A5AEEA",
";X c #B8BEE2",
":X c #B1C2D6",
">X c #B9C5E1",
",X c #BEC9E6",
"<X c #BFC5EC",
"1X c #BDCEE8",
"2X c #C2C8F0",
"3X c #C9DAFA",
"4X c #CBDBFC",
"5X c #D9E7F4",
"6X c None",
/* pixels */
"6X6X6X6X6X6X6X6X6X6X6X6X6X6X6X6X6X6X6X6X6X6X6X6X6X6X6X6X6X6X6X6X6X6X6X6X6X6X6X6X6X6X6X6X6X6X6X6X6X6X",
"6X6X6X6X6X6X6X6X6X6X6X6X6X6X6X6X6X6X6X6X6X6X6X6X6X6X6X6X6X6X6X6X6X6X6X6X6X6X6X6X6X6X6X6X6X6X6X6X6X6X",
"6X6X6X6X6X6X6X6X6X6X6X6X6X6X6X6X6X6X6X6X6X6X6X6X6X6X6X6X6X6X6X6X6X6X6X6X6X6X6X6X6X6X6X6X6X6X6X6X6X6X",
"6X6X6X6X6X6X6X6X6X6X6X6X6X6X6X6X6X6X6X6X6X6X6X6X6X6X6X6X6X6X6X6X6X6X6X6X6X6X6X6X6X6X6X6X6X6X6X6X6X6X",
"6X6X6X6X6X6X6X6X6X6X6X6X6X6X6X6X6X6X6X6X6X6X6X6X6X6X6X6X6X6X6X6X6X6X6X6X6X6X6X6X6X6X6X6X6X6X6X6X6X6X",
"6X6X6X6X6X6X6X6X6X6X6X6X6X6X6X6X6X6X6X6X6X6X6X6X6X6X6X6X6X6X6X6X6X6X6X6X6X6X6X6X6X6X6X6X6X6X6X6X6X6X",
"6X6X6X6X6X6X6X6X6X6X6X6X6X6X6X6X6X6X6X6X6X6X6X6X6X6X6X6X6X6X6X6X6X6X6X6X6X6X6X6X6X6X6X6X6X6X6X6X6X6X",
"6X6X6X6X6X6X6X6X6X6X6X6X6X6X6X6X6X6X6X6X6X6X6X6X6X6X6X6X6X6X6X6X6X6X6X6X6X6X6X6X6X6X6X6X6X6X6X6X6X6X",
"6X6X6X6X6X6X6X6X6X6X6X6X6X6X6X6X6X6X6X6X6X6X6X6X6X6X6X6X6X6X6X6X6X6X6X6X6X6X6X6X6X6X6X6X6X6X6X6X6X6X",
"6X6X6X6X6X6X6X6X6X6X6X6X6X6X6X6X6X6X6X6X6X6X6X6X6X6X6X6X6X6X6X6X6X6X6X6X6X6X6X6X6X6X6X6X6X6X6X6X6X6X",
"6X6X6X6X6X6X6X6X6X6X6X6X6X6X6X6X6X6X6X6X6X6X6X6X6X6X6X6X6X6X6X6X6X6X6X6X6X6X6X6X6X6X6X6X6X6X6X6X6X6X",
"6X6X6X6X6X6X6X6X6X6X6X6X6X6X6X6X6X6X6X6X6X6X6X6X6X6X6X6X6X6X6X6X6X6X6X6X6X6X6X6X6X6X6X6X6X6X6X6X6X6X",
"6X6X6X6X6X6X6X6X6X6X6X6X6X6X6X6X6X6X6X6X6X6X6X6X6X6X6X6X6X6X6X6X6X6X6X6X6X6X6X6X6X6X6X6X6X6X6X6X6X6X",
"6X6X6X6X6X6X6X6X6X6X6X6X6X6X6X6X6X6X6X6X6X6X6X6X6X6X6X6X6X6X6X6X6X6X6X6X6X6X6X6X6X6X6X6X6X6X6X6X6X6X",
"6X6X6X6X6X6X6X6X6X6X6X6X6X6X6X6X6X6X6X6X6X6X6X6X6X6X6X6X6X6X6X6X6X6X6X6X6X6X6X6X6X6X6X6X6X6X6X6X6X6X",
"6X6X6X6X6X6X6X6X6X6X6X6X6X6X6X6X6X6X6X6X6X6X6X6X6X6X6X6X6X6X6X6X6X6X6X6X6X6X6X6X6X6X6X6X6X6X6X6X6X6X",
"6X6X6X6X6X6X6X6X6X6X6X6X6X6X6X6X6X6X6X6X6X6X6X6X6X6X6X6X6X6X6X6X6X6X6X6X6X6X6X6X6X6X6X6X6X6X6X6X6X6X",
"6X6X6X6X6X6X6X6X6X6X6X6X6X6X6X6X6X6X6X6X6X6X6X6X6X6X6X6X6X6X6X6X6X6X6X6X6X6X6X6X6X6X6X6X6X6X6X6X6X6X",
"6X6X6X6X6X6X6X6X6X6X6X6X6X6X6X6X6X6X6X6X6X6X6X6X6X6X6X6X6X6X6X6X6X6X6X6X6X6X6X6X6X6X6X6X6X6X6X6X6X6X",
"6X6X6X6X6X6X6X6X6X6X6X6X6X6X6X6X6X6X6X6X6X6X6X6XG.G.G.G.6X6X6X6X6X6X6X6X6X6X6X6X6X6X6X6X6X6X6X6X6X6X",
"6X6X6X6X6X6X6X6X6X6X6X6X6X6X6X6X6X6X6X6X6X6X6X6Xw.Z.Z.v.G.G.6X6X6X6X6X6X6X6X6X6X6X6X6X6X6X6X6X6X6X6X",
"6X6X6X6X6X6X6X6X6X6X6X6X6X6X6X6X6X6X6X6X6X6X6X6X-.e.d.p.A.D.6X6X6X6X6X6X6X6X6X6X6X6X6X6X6X6X6X6X6X6X",
"6X6X6X6X6X6X6X6X6X6X6X6X6X6X6X6X6X6X6X6X6X6X6X0 u.0 s.d.u.s.d.6X6X6X6X6X6X6X6X6X6X6X6X6X6X6X6X6X6X6X",
"6X6X6X6X6X6X6X6X6X6X6X6X6X6X6X6X6X6X6X6X6X6X6Xt.u.t.i.d.u.i.d.6X6X6X6X6X6X6X6X6X6X6X6X6X6X6X6X6X6X6X",
"6X6X6X6X6X6X6X6X6X6X6X6X6X6X6X6X6X6X6X6X6X6X6XO.u.u.O.>.u.O.d.6X6X6X6X6X6X6X6X6X6X6X6X6X6X6X6X6X6X6X",
"6X6X6X6X6X6X6X6X6X6X6X6X6X6X6X6X6X6X6X6X6X6X6X* 2.p.C.n f.n r.6X6X6X6X6X6X6X6X6X6X6X6X6X6X6X6X6X6X6X",
"6X6X6X6X6X6X6X6X6X6X6X6X6X6X6X6X6X6X6X6X6X0.8.Y 7 a.5XT.J.Y.q 6X6X6X6X6X6X6X6X6X6X6X6X6X6X6X6X6X6X6X",
"6X6X6X6X6X6X6X6X6X6X6X6X6X6X6X6X6X6X6X6XU.z.8.Y 7 e  X}.|.{.l.6X6X6X6X6X6X6X6X6X6X6X6X6X6X6X6X6X6X6X",
"6X6X6X6X6X6X6X6X6X6X6X6X6X6X6X6X6X6X6XU.I S  .g.T q.H.K.K.M.b.U.6X6X6X6X6X6X6X6X6X6X6X6X6X6X6X6X6X6X",
"6X6X6X6X6X6X6X6X6X6X6X6X6X6X6X6X6X6X6XU K z 4.j.^ n.n.F.F.) h.U 6X6X6X6X6X6X6X6X6X6X6X6X6X6X6X6X6X6X",
"6X6X6X6X6X6X6X6X6X6X6X6X6X6X6X6X6XU.P.G J j E.+.9.Q Y m.m.Y G P W.6X6X6X6X6X6X6X6X6X6X6X6X6X6X6X6X6X",
"6X6X6X6X6X6X6X6X6X6X6X6X6X6X6X4X4XU.B b =.E `.!.} 5.Y / / Y b >X,X4X6X6X6X6X6X6X6X6X6X6X6X6X6X6X6X6X",
"6X6X6X6X6X6X6X6X6X6X6X6X6X6X6X4X:XF M *.8.6Xk.x.@...m ( ( 6X6X:X4X:X6X6X6X6X6X6X6X6X6X6X6X6X6X6X6X6X",
"6X6X6X6X6X6X6X6X6X6X6X6X6X6X6X4X/.z Y 8._ 6XX.#.y.3.c | c.6X6X].1X].6X6X6X6X6X6X6X6X6X6X6X6X6X6X6X6X",
"6X6X6X6X6X6X6X6X6X6X6X6X6X6X6X3XK l W 6.Y ] %.8 I.I.v r ].6X6X'.'.'.6X6X6X6X6X6X6X6X6X6X6X6X6X6X6X6X",
"6X6X6X6X6X6X6X6X6X6X6X6X6X6X6X@XK ; ' ! Y $.{ k Z L A H 6X6X6XD D D 6X6X6X6X6X6X6X6X6X6X6X6X6X6X6X6X",
"6X6X6X6X6X6X6X6X6X6X6X6X6XB.B.R.C $ 8.Y Y 6 > f f h h x a 6X6X6X6X6X6X6X6X6X6X6X6X6X6X6X6X6X6X6X6X6X",
"6X6X6X6X6X6X6X6X6X6X6X6X6XS.V.V N Y ` Y & a .         i a 6X6X6X6X6X6X6X6X6X6X6X6X6X6X6X6X6X6X6X6X6X",
"6X6X6X6X6X6X6X6X6X6X6X6XL.=XQ.N.7.Y Y Y d p o       .   a a 6X6X6X6X6X6X6X6X6X6X6X6X6X6X6X6X6X6X6X6X",
"6X6X6X6X6X6X6X6X6X6X6X6X$X).oX&.~ Y Y Y a # o o @ @   . p a s 6X6X6X6X6X6X6X6X6X6X6X6X6X6X6X6X6X6X6X",
"6X6X6X6X6X6X6X6X6X6X6X6X.X+X-X8.Y Y Y Y - o o + # # o . = a , 6X6X6X6X6X6X6X6X6X6X6X6X6X6X6X6X6X6X6X",
"6X6X6X6X6X6X6X6X6X6X6XOX_.2X6X8.Y Y R % + + + 6X6X6X# . X g 9 6X6X6X6X6X6X6X6X6X6X6X6X6X6X6X6X6X6X6X",
"6X6X6X6X6X6X6X6X6X6X2X~.<X6X6X6XY Y [ O @ 6X6X6X6X6X6X6X: w y u 6X6X6X6X6X6X6X6X6X6X6X6X6X6X6X6X6X6X",
"6X6X6X6X6X6X6X6X6X2X[.&X6X6X6X6X6X;.<.+ 6X6X6X6X6X6X6X6X6X6X3 y 6X6X6X6X6X6X6X6X6X6X6X6X6X6X6X6X6X6X",
"6X6X6X6X6X6X6X6X6X#XXX2X6X6X6X6X6X:.,.@ 6X6X6X6X6X6X6X6X6X6X1 t 6X6X6X6X6X6X6X6X6X6X6X6X6X6X6X6X6X6X",
"6X6X6X6X6X6X6X6X;X(.2X6X6X6X6X6X1.t 9 6X6X6X6X6X6X6X6X6X6X6X< ] 6X6X6X6X6X6X6X6X6X6X6X6X6X6X6X6X6X6X",
"6X6X6X6X6X6X6X2X^.*X6X6X6X6X6X9 o.6X6X6X6X6X6X6X6X6X6X6X6X6X< ] 6X6X6X6X6X6X6X6X6X6X6X6X6X6X6X6X6X6X",
"6X6X6X6X6X6X6X2X%X6X6X6X6X6X6X4 5 6X6X6X6X6X6X6X6X6X6X6X6X6X6X2 ] 6X6X6X6X6X6X6X6X6X6X6X6X6X6X6X6X6X",
"6X6X6X6X6X6X6X2X2X6X6X6X6X6X6X1 1 6X6X6X6X6X6X6X6X6X6X6X6X6X6X< ] 6X6X6X6X6X6X6X6X6X6X6X6X6X6X6X6X6X",
"6X6X6X6X6X6X6X6X6X6X6X6X6X6X6X6X6X6X6X6X6X6X6X6X6X6X6X6X6X6X6X6X6X6X6X6X6X6X6X6X6X6X6X6X6X6X6X6X6X6X"
};
