/* XPM */
static char *_5aaa79cab004995c3739a524c68b398zgKrHRBHxhcQwlHw[] = {
/* columns rows colors chars-per-pixel */
"50 50 171 2 ",
"   c None",
".  c #270102",
"X  c #2B0203",
"o  c #2A0607",
"O  c #2D0506",
"+  c #310103",
"@  c #3B0305",
"#  c #320608",
"$  c #330C0D",
"%  c #331313",
"&  c #38191A",
"*  c #3C191B",
"=  c #51080B",
"-  c #500C10",
";  c #630309",
":  c #6C030B",
">  c #6D030B",
",  c #6E030A",
"<  c #6E040A",
"1  c #6F040A",
"2  c #69050C",
"3  c #71050D",
"4  c #73050D",
"5  c #76040D",
"6  c #76060E",
"7  c #7B050E",
"8  c #6A0A10",
"9  c #6F0810",
"0  c #6F0B12",
"q  c #720D15",
"w  c #6A1319",
"e  c #70171D",
"r  c #7D141C",
"t  c #502023",
"y  c #532A2D",
"u  c #512C2D",
"i  c #562F30",
"p  c #543E3E",
"a  c #5E393A",
"s  c #692329",
"d  c #7C252B",
"f  c #752B2F",
"g  c #7B282E",
"h  c #75383C",
"j  c #574243",
"k  c #554444",
"l  c #585859",
"z  c #664546",
"x  c #605354",
"c  c gray38",
"v  c #636061",
"b  c #646161",
"n  c gray40",
"m  c #696A6A",
"M  c gray42",
"N  c #736768",
"B  c #716E6F",
"V  c gray44",
"C  c gray46",
"Z  c gray48",
"A  c #7B7B7B",
"S  c #7C7C7C",
"D  c #7E7E7E",
"F  c #81050F",
"G  c #8A0611",
"H  c #860A13",
"J  c #800B14",
"K  c #910612",
"L  c #950712",
"P  c #9B0814",
"I  c #9D0C18",
"U  c #A60E1B",
"Y  c #AA0C1A",
"T  c #821821",
"R  c #822027",
"E  c #873138",
"W  c #8C333A",
"Q  c #843B3F",
"!  c #91393F",
"~  c #A92F3A",
"^  c #AA333C",
"/  c #AF3741",
"(  c #B73C47",
")  c #88464A",
"_  c #9B424A",
"`  c #915054",
"'  c #A7424B",
"]  c #AF424A",
"[  c #B1444D",
"{  c #B44A54",
"}  c #A4585D",
"|  c #BC5F67",
" . c #9B6368",
".. c #9E797C",
"X. c #9A7E7E",
"o. c #A66367",
"O. c gray52",
"+. c #898586",
"@. c #8B8B8B",
"#. c #909090",
"$. c #979797",
"%. c #9B9B9B",
"&. c gray61",
"*. c #BB888C",
"=. c #AE8E91",
"-. c #AB9093",
";. c #A4A4A4",
":. c gray65",
">. c #AAAAAA",
",. c #ACACAC",
"<. c gray68",
"1. c #B7A5A6",
"2. c #B5ADAE",
"3. c #BAA9A9",
"4. c gray69",
"5. c #B4B4B4",
"6. c #B9B9B9",
"7. c #BDB8B9",
"8. c gray74",
"9. c gray75",
"0. c #CAA8AB",
"q. c gray76",
"w. c #C3C3C3",
"e. c gray77",
"r. c #C5C5C5",
"t. c #C6C6C6",
"y. c #C6C7C6",
"u. c gray78",
"i. c #C8C8C8",
"p. c gray79",
"a. c #CACACA",
"s. c gray80",
"d. c #CDCDCD",
"f. c #CECECE",
"g. c #D0D0D0",
"h. c gray82",
"j. c #D2D2D2",
"k. c gray84",
"l. c #D7D7D7",
"z. c #DBD1D1",
"x. c #DAD5D6",
"c. c #D8D8D8",
"v. c #DADADA",
"b. c gray86",
"n. c #DDDDDD",
"m. c gray87",
"M. c #DFDFDF",
"N. c gray88",
"B. c #E1E1E1",
"V. c gray89",
"C. c #E6E0E1",
"Z. c #E4E4E4",
"A. c gray90",
"S. c gray91",
"D. c #E9EAE9",
"F. c gray92",
"G. c #ECECEC",
"H. c gray93",
"J. c #EFEFEF",
"K. c #F2EBEC",
"L. c gray94",
"P. c #F1F1F1",
"I. c #F2F1F1",
"U. c gray95",
"Y. c #F4F4F4",
"T. c gray96",
"R. c #F7F5F6",
"E. c #F6F6F6",
"W. c gray97",
"Q. c #F8F8F8",
"!. c #F9F9F9",
/* pixels */
"                                                                                                    ",
"                                                                                                    ",
"                                                                                                    ",
"                                                                                                    ",
"                                                                                                    ",
"                                                                                                    ",
"                                                                                                    ",
"                                                                                                    ",
"                                                                                                    ",
"                                            n.n.  B.B.B.B.g.B.B.x.` 0 q                             ",
"                         .T F _ C.T.T.F.T.!.U.!.!.U.T.!.!.G.!.!.T.' L K }                           ",
"                        ^ ! < Q 1.g.g.i.g.g.i.d.d.i.i.i.i.9.r.r.7.f ; e /                           ",
"                        U )   a N @.  S     O.            A     B     X.I                           ",
"                        | ..    4.                                    i P                           ",
"                        ] w                                           z [                           ",
"                        Y 0                                           u ~                           ",
"                        ( g                                           t {                           ",
"                        K.2.            l.                            +.U.                          ",
"                        T.9.                                          #.U.                          ",
"                        T.w.                                          $.G.                          ",
"                        F.w.                                          %.n.                          ",
"                        Z.5.                  l.                      &.U.                          ",
"                        T.w.M                                         &.T.                          ",
"                        T.d.                                          :.T.                          ",
"                        T.g.                                          :.T.                          ",
"                        B.v.                                          >.T.                          ",
"                        U.v.                                          ,.G.                          ",
"                        U.v.                                          ,.B.                          ",
"                          n.                                          5.F.                          ",
"                          n.                                          6.U.                          ",
"                          B.                                          9.U.                          ",
"                          B.          s R -.w.d.r.r.d.r.=.W h         w.U.                          ",
"                          Z.        p = H   Z.B.n.n.Z.B.*.G - j       r.F.                          ",
"                          0.      S v                         b       3.z.                          ",
"                          J       C                           M V     d o.                          ",
"                          7 y   A n                             v     < E                           ",
"                          6   * x                               l k   : r                           ",
"                          6 # X                                   % o :                             ",
"                          3 + O                                   & . :                             ",
"                          3 @                                       $ :                             ",
"                          8                                           2                             ",
"                                                                                                    ",
"                                                                                                    ",
"                                                                                                    ",
"                                                                                                    ",
"                                                                                                    ",
"                                                                                                    ",
"                                                                                                    ",
"                                                                                                    ",
"                                                                                                    "
};
