/* XPM */
static char *c49c90874b524921b3908a8f2455d9aa5nAqVxhbNjFIIYF2[] = {
/* columns rows colors chars-per-pixel */
"50 50 208 2 ",
"   c #265A15",
".  c #2D6217",
"X  c #2E6419",
"o  c #356616",
"O  c #3A6515",
"+  c #3D6E15",
"@  c #366619",
"#  c #366A1B",
"$  c #3C6C1B",
"%  c #39641B",
"&  c #397217",
"*  c #32711F",
"=  c #3D731D",
"-  c #3F7F1B",
";  c #346D21",
":  c #3B6C21",
">  c #3C7323",
",  c #3D7A24",
"<  c #3B7229",
"1  c #436D17",
"2  c #426D1A",
"3  c #4C7916",
"4  c #44731C",
"5  c #4A761B",
"6  c #437A1E",
"7  c #4B7B1C",
"8  c #51761E",
"9  c #537B1B",
"0  c #406D23",
"q  c #437522",
"w  c #497622",
"e  c #437B24",
"r  c #4B7D23",
"t  c #427428",
"y  c #447C2A",
"u  c #4B7E2B",
"i  c #507521",
"p  c #527D23",
"a  c #537E2C",
"s  c #4B7C32",
"d  c #517F32",
"f  c #46811E",
"g  c #4C811E",
"h  c #54841E",
"j  c #5D851C",
"k  c #55881F",
"l  c #5D891D",
"z  c #5C981E",
"x  c #5C941E",
"c  c #61951D",
"v  c #66991D",
"b  c #6A9B1F",
"n  c #75981B",
"m  c #7A9F1F",
"M  c #7EA51E",
"N  c #448225",
"B  c #4C8424",
"V  c #4D8A25",
"C  c #45832B",
"Z  c #4C842B",
"A  c #428928",
"S  c #4D8A2A",
"D  c #538424",
"F  c #5A8625",
"G  c #538A25",
"H  c #5B8B23",
"J  c #53852B",
"K  c #5A852B",
"L  c #548B2B",
"P  c #5B8C2B",
"I  c #4D902C",
"U  c #4E9729",
"Y  c #559225",
"T  c #5C9224",
"R  c #569B27",
"E  c #5C9B25",
"W  c #55912B",
"Q  c #5C932C",
"!  c #54992B",
"~  c #5C9A2B",
"^  c #4E8431",
"/  c #548532",
"(  c #598632",
")  c #558B32",
"_  c #5B8D33",
"`  c #568339",
"'  c #5D8D3C",
"]  c #4D9331",
"[  c #569233",
"{  c #5C9333",
"}  c #5C9A34",
"|  c #5C913A",
" . c #628D25",
".. c #60842B",
"X. c #618C29",
"o. c #649324",
"O. c #699624",
"+. c #639B25",
"@. c #6C9D23",
"#. c #62932B",
"$. c #69952D",
"%. c #639C2C",
"&. c #6B9C2C",
"*. c #719225",
"=. c #729F24",
"-. c #739D2D",
";. c #799D28",
":. c #628D34",
">. c #628D3D",
",. c #639334",
"<. c #6A9534",
"1. c #649B32",
"2. c #6B9C34",
"3. c #65933A",
"4. c #6B963E",
"5. c #669B39",
"6. c #6C9A3A",
"7. c #739C32",
"8. c #769D3C",
"9. c #5DA12C",
"0. c #5DA133",
"q. c #5EA23B",
"w. c #65A126",
"e. c #6CA224",
"r. c #64A32C",
"t. c #6BA42C",
"y. c #67AB2D",
"u. c #6DA92D",
"i. c #74A325",
"p. c #7AA323",
"a. c #76AC27",
"s. c #7DA926",
"d. c #73A52B",
"f. c #79A62C",
"g. c #74A92C",
"h. c #7BAE2E",
"j. c #7CAD2D",
"k. c #7CAB2C",
"l. c #7EB12D",
"z. c #64A333",
"x. c #6CA534",
"c. c #65A833",
"v. c #6CA933",
"b. c #65A43A",
"n. c #6CA53B",
"m. c #64AA39",
"M. c #6DAB3B",
"N. c #73A534",
"B. c #78A631",
"V. c #74AB34",
"C. c #7EAA31",
"Z. c #7BAD34",
"A. c #72A53B",
"S. c #74AC3B",
"D. c #7BAD3B",
"F. c #77B134",
"G. c #7DB135",
"H. c #76B03C",
"J. c #7CB23C",
"K. c #6E9541",
"L. c #759F40",
"P. c #6FAA40",
"I. c #63A341",
"U. c #74A643",
"Y. c #75AD42",
"T. c #7BAD41",
"R. c #76B044",
"E. c #7DB243",
"W. c #7FB842",
"Q. c #7DB14A",
"!. c #80AA27",
"~. c #82A629",
"^. c #82AA2E",
"/. c #83AD2C",
"(. c #81AE2D",
"). c #83AC2B",
"_. c #8AAE2B",
"`. c #84B12D",
"'. c #8BB42D",
"]. c #91B12D",
"[. c #80A732",
"{. c #83AE32",
"}. c #89AF32",
"|. c #82AE3B",
" X c #84B234",
".X c #8DB333",
"XX c #8BB434",
"oX c #8DB837",
"OX c #84B33B",
"+X c #8AB43C",
"@X c #8CB93D",
"#X c #90B931",
"$X c #9DBD37",
"%X c #91B53B",
"&X c #92BB3C",
"*X c #99BA39",
"=X c #81AE41",
"-X c #84B442",
";X c #8AB543",
":X c #85B943",
">X c #8CBA42",
",X c #85B54B",
"<X c #83BA4F",
"1X c #8BB94B",
"2X c #8AB54A",
"3X c #92B640",
"4X c #92BC43",
"5X c #92BC4B",
/* pixels */
"F o.F F #..Xj./.E 7 D D H O.).B.Z..X$.F J K &.k. X{.[.D F J w 6 E i.=.@.9 8 K r D ~.p.i.s.*.i i 9 F ",
"H k H H E /.h.k.d.F D h  .O.i.{.D.+XD F F D H k.f./.].;.K B D T g.).i.i.k 7 D ..p @.+.p.M =.j 1 9 7 ",
"h G H F O.g.j.'.g.D G H k O._.!.'._.D p r r i.i././.k. .r w r H =.=./.p.H 5 9 w 9 =.p.@.M n 7 + 3 + ",
"h H D g o.g.).`.j.D r D o.O.`.g.C./.F H D  .O.{.k.g.}. .w D w H d.i._.e.h 2 4 5 2 @.c b b m 5 3 9 1 ",
"f O.o.o.#.).s.'.t.D  .D  .E k.k.g.k.D q D X.-.C.$X/.^.F q 7 D H ).!.!.@.H p 5 5 4 p.v b p.k @ 1 O 3 ",
"g O.T T G '.h.`.s.H O.H o.%.g.g. X{.G r P P O.f.{..Xk.H X.F r G @.^.t.g. .$ 7 5 h p.b o.c g 5 5 5 7 ",
"B H H T o.$Xl.'.XXD #. . .%.).{.Z.k.G G H $.$.B.N.V.{.X.r w  .G g.g./.i.F w p 7 h _.i.@.v l $ $ O 1 ",
"D H G H e.`.F.h.l.G o.F F %.`.V.y.G.o.o.P F G f.V.Z.C.D F D D X.g.%./.t.B D r 7 D @.e.e.p.j % o 2 5 ",
"g = g T +.g.j.`.#XG O.F $.%.k.Z.j.u.G L G F F {. Xg.+.H J D G H h.k.g.~ o.F = 6 h i.x z s.f $ O O O ",
"7 B G G G r.Z.d. X&.H D G ~  Xy.Z.OXW P P B #.d.%XZ.k.K ,.$.X.T Z..Xw.w.B w D = j i.s.).e.O.+ + + 1 ",
"o.G o.&.N.4X+X XZ.D  .P F 2.oXg.XXt.S #.$.K 7. X+Xg.{.,.:.:.K -.}..Xd.{.H r D e H @.@.w.w.h g 4 7 4 ",
"o.B - T A.OXZ.+Xx.P ,.P J N.4X@XS.V.1.#.T B #. X|.z.D./ J Z $.<.D.V.x.V.,.J Z <.:.k.+.E s.c 7 5 7 a ",
"O.N N B [ N.E.OX X,.P &.2.N.OXS.4XD.L B W G { ;XZ.XXD.>.:.' #.S D.n.x.N.2.K L D P k.).s.).H 5 7 # p ",
"B H B B S OX;X Xg.#.D Y ~ %. X@X XD.V G P <.} OXZ.Z.z.' ' / #.L %Xt. Xy.~ e B D D t.e._.g.Y $ 7 5 9 ",
"e B P e L g.V.XXv.J G 2.&.1.N.V.*X XV #.$.P 2.;XD.OXx.Z #.,.P ,.B.N.Z.Z.T J e r $.l.`.).k.i.g 5 7 1 ",
"6 T #.Y ~ v. X&XV.G G P J 2.OXV.OXOXP L e L 1.A.+X@XOX_ J y Z L z.t.V.g.P J Z B o.{.i.g.a.O.7 g 7 5 ",
"Z Y T o.T c.M. X XJ B J G &.Z.D.V.E.1.L S _ 5.D.D.x.N._ S , L ,.V.V. Xr.L J B e J  Xd.g.j.O.& 7 7 6 ",
"L G G G x.Z.g.G.V.G J Z P %.S.J.S.J.L Q J L { V.OXv.N.Z u J J } D.N.v.V.L J J B D l.j.t.u.T = H 7 7 ",
", G P V 2.t.%Xv.t.#.#.B P N.V.D.v.@XL { x.1.1.N.|.+XD.L ,._ P <.S.v.@XOX~ J L J L k.r.g.i.&.B H T 7 ",
"e V B B H v.N.y.x.F F G P 1.Z. Xv.OXQ Q [ <.5.A.Z.D.D.P ( ( Z _ -X|.J.G.1.F G e L t.9.u.w.G D o.f g ",
"* e e y W 9.N.V.r.G P B G 1. X X XV.C L y { 2.E.E.T.OX<.,.<.( ,.M.S.G. XV P P B e t.t.h.a.~ = h g = ",
"D G e B W U 1.t.v.L Z V S 1.-XS.1XP.Z { C _ 5.J.-XT.=X6.) ,.J ,.D.|.S.OXQ S J ) { &.B.k.a.%.h D 6 6 ",
"B L Z e Z 0.t.Z.v.Q u V e ~ S.M.1X,X[ ) ,.{ 2.E.,XD.;X:.( ,._ { D. X%XOXP J <.) ,.d.G.g.g.&.r e 6 D ",
"P K Z / ,.Y.;XZ.V.Z Q J Z S N.,X,XOX5.C 5.' 4.;XQ.5X2X3./ ' :.,.n.|.+XS.L Z 5.<.J Z.|.V.V.1.e P y Z ",
"u , e B ,.b.T.v.x.J e Z Z ,.@X-X5XQ.L.L ) _ { S.Y.-XT./ ( ) ' ,.v.D.x.Z.L u 3.:.8.V.x.t.Z.#.> r N , ",
"V D > > %.t.1.x.Z.#.F J L %.S.E.W.E.J _ _ ,.2.Y.A.M.M.C J _ Z <.S.A.S.3X,.L C ^ C v.u.v.d.Y D D & = ",
"B e P V $.c.z. XD.Q F P J W M.S.S.H.C ' ,.{ { Y.Y.T.T.,.L ( / 1.J.n.x.-XZ Z a C B V.V.d.d.O.6 7 r f ",
"6 B J e Q q. X X0.C #.L P 5.S.J.S.OXL { L Q { >X,XE.b.Z _ ,.L 3.D.S.A.S.{ , C S P v.V.t.E Y 6 6 f 5 ",
"P e B B T V. Xv.N.L B { ,.1.OXM.T.;X~ ,.W P 2.J.-XE.n.) / ,.J { S.M.A.z._ Z J B W y.u.y.w.E , 6 D 4 ",
"V N > N $.V.J.V.V.S Z C C Q M.J.M.,XL ,.C Z 6.;X,X=XS.,.:.,./ [ T.Y.A.S.Q C t Z Z x.Z.r.9.V e  .g r ",
"N B H B G G.v.v.%.Z e C N L D.M.&XE.S ,.L 2.5.n.D.Z.A./ y _ / { T.b.A.M.L J Z e , %.g.+.%.E B r F 7 ",
"Z e N V ~ x.V.V.v.C C G , S A.A.OXM.{ <.<.,.{ D.A.D.b.,.C u / [ D.c.z.S.C ( u < e Z.N.r.Z.V e = D $ ",
"V V S V N G.G.t.r.B F L C 1.M.M.D.D.{ ) 5.) ^ S.|.A.T._ P ( s / n.n.N.b.{ u t Z K N.k.&.t.Y B w % X ",
"G Y , V V J.T.v.z.V G S L { v.R.A.A.C ,.,.) [ -XS.M.n.3.K.' / { n.b.2.} y a d K J x.~ %.e.V 4 = B 4 ",
"D N Z V 5.,XT.OXz.L #.Z { 5.-XA.S.n.^ y Z / [ T.n.Y.n.>.( s y ' U.I.q.n.^ K K J J t.z.&.f.G e = w P ",
"D Y T G 5.E.D.v.b.{ ^ _ ) | -X-X=XP.y Z u / 6.R.T.T.U.' / ` / ' U.n.b.n.| d u y u r.N.d.B.&.= > = a ",
"G E T P 1.E.E.A.N.G L Z e x.A.z.1.b.y y u / ) S.Y.b.n.>.` ` y y D.1.b.1.u t e e u t.E E E H B p = w ",
"e V Z G ~ m.M.V.V.L N N y S m.J.v.} Z J Z :._ x.n.0.b.u Z < Z ) x.n.n.1.C < < : u N.d.Y f.G D w $ 4 ",
"D S N S ~ OXH.V.Z.S B Z S I E.:XM.M.P Z Z y Z S.x.v.A.u s y t _ Y.n.n.} ) < < e u t.t.R d.E $ q $ w ",
"B V N L ~ V.H.D.c.N V Q &.z.S.:XV.H.S P Q C { D.D.M.n.u ) u < { z.OXA.z.< t q e e ~ r.t.^.T e # # % ",
"N B G G ~ v.c.M.v.V Z S G [ @X-X:XJ.L L _ C 5.-XJ.v.n.Z J P C S ! v.A.%.C ; t > e d.f.9.%.o.w $ # @ ",
"B B D V d.V.v.V.Z.%.T L 1.1.@X&X4XH.W L L Q 2.m.S.OXS.,.,.:./ L x.v.x.Z.Z > #.w B d.t.R B.V r w 4 $ ",
"H N e L d.Z.z.OXZ.Q W S W } W.J.>X:XZ e L S } M.OXJ.A.,.u J u L A.v.v.V.u y e q N r.d.g.d.D w $ @ 2 ",
"F B u e W Z.z.G.J.~ A L N ] S.>X4XY.W W L ,.v.J.S.OXz.L L Z L S x.x.9.V.$.> ; ; D r.t.t.w.G 4 $ 4 5 ",
"e B r > S V.v.J.J.S V Z S ~ H.D.-XR.Q S 1.L [ W.Y.S.b.L J P J Q N.v.G.V.) B B u e r.E w.R V 4   @ 4 ",
"e e u e #.v.V.OXoXP S N N z.v.J.5X<X) Q P S 5.:XJ.J.-XS Z ( y 1.Z.z.v.v.J L C s _ N.r.t.R V % # 4 2 ",
"e y u J 2.M.D.A.v.L P L S x.>X:X1X:X[ 5.,.5.5.W.-XT.S.) _ { Q 2.A.v.V.c.S e _ y Z |.V.D.x.#.p q q : ",
"y < y y 7.1.5.1.r., J Q P 1.oX1X5X5X{ Z _ { <.T.;X-X=X) / { _ L n.Z.Z.Z.N e :._ _  XZ.|.B.G w $ r 0 ",
"7 > q = J v.V.Z.B.L , e ,.L +X:X2X,X2.I J { 2.;XV.J.J._ C ) L ~ G.N.G.Z.W D L ( _ V.g.t.+.B 6 . 4 9 ",
"q > e u L V.D.Z.V.N y y u W v.H.-X@XL Z _ { 1.V.z.V.E.P N W S ~ OXD.v.v.L e e q V y.V.U W - r $ $ $ "
};
