/* XPM */
static char *_14a57f5babb4c6685f089e219ce67f0mGfSnEHWizRFItpY[] = {
/* columns rows colors chars-per-pixel */
"50 50 230 2 ",
"   c #1C0C06",
".  c #230E0A",
"X  c #280D04",
"o  c #241107",
"O  c #2C1106",
"+  c #24120C",
"@  c #2B140C",
"#  c #2E190E",
"$  c #391705",
"%  c #33160A",
"&  c #341A0D",
"*  c #3A1B0C",
"=  c #351707",
"-  c #251512",
";  c #2C1912",
":  c #2B1710",
">  c #341D13",
",  c #3A1E12",
"<  c #300F01",
"1  c #3C2115",
"2  c #3C241A",
"3  c #3B251A",
"4  c #3F210C",
"5  c #431E0B",
"6  c #44230D",
"7  c #4A250E",
"8  c #49280C",
"9  c #52280E",
"0  c #432412",
"q  c #4A2512",
"w  c #4D2B14",
"e  c #41261B",
"r  c #432A1E",
"t  c #4C2C1B",
"y  c #532B14",
"u  c #532E1C",
"i  c #5B2E16",
"p  c #543215",
"a  c #5C3316",
"s  c #55321A",
"d  c #5C341B",
"f  c #5F391B",
"g  c #4F3018",
"h  c #633619",
"j  c #633A1C",
"k  c #6B3C1C",
"l  c #653512",
"z  c #452C22",
"x  c #4A2E22",
"c  c #532F20",
"v  c #4B3225",
"b  c #523425",
"n  c #5E3C23",
"m  c #55392A",
"M  c #5B3D2C",
"N  c #583724",
"B  c #633C23",
"V  c #6A3E23",
"C  c #603B28",
"Z  c #703E23",
"A  c #78431C",
"S  c #6F401B",
"D  c #5D422B",
"F  c #6D4425",
"G  c #62432B",
"H  c #6B452B",
"J  c #6A4629",
"K  c #734524",
"L  c #754A25",
"P  c #7C4C26",
"I  c #734B2B",
"U  c #7C4E2B",
"Y  c #774626",
"T  c #7D522C",
"R  c #7F5126",
"E  c #654632",
"W  c #6C4B36",
"Q  c #6C4C39",
"!  c #694833",
"~  c #714D32",
"^  c #714E3A",
"/  c #6E563E",
"(  c #735134",
")  c #7C5533",
"_  c #72523C",
"`  c #7E5B38",
"'  c #775C44",
"]  c #7A634C",
"[  c #814E25",
"{  c #814E2A",
"}  c #83542D",
"|  c #86592E",
" . c #8C5A2E",
".. c #875229",
"X. c #925C2C",
"o. c #835632",
"O. c #855A34",
"+. c #8A5C34",
"@. c #8A5D39",
"#. c #855A38",
"$. c #915D35",
"%. c #97602F",
"&. c #8D6137",
"*. c #8D623B",
"=. c #85623E",
"-. c #936135",
";. c #93653C",
":. c #98653C",
">. c #95693E",
",. c #9B6A3C",
"<. c #996636",
"1. c #9C703F",
"2. c #A16D3B",
"3. c #A4783F",
"4. c #8B6641",
"5. c #8D6A44",
"6. c #886947",
"7. c #926642",
"8. c #946B44",
"9. c #9B6D42",
"0. c #936B48",
"q. c #9C6F49",
"w. c #9C7144",
"e. c #96714B",
"r. c #9D744C",
"t. c #9E784E",
"y. c #917147",
"u. c #816B54",
"i. c #897158",
"p. c #947652",
"a. c #9B7551",
"s. c #9C7B54",
"d. c #9B7C5C",
"f. c #95785A",
"g. c #A27344",
"h. c #A3764B",
"j. c #A4794C",
"k. c #AB7C4C",
"l. c #A67745",
"z. c #A47B53",
"x. c #AA7D52",
"c. c #A07E59",
"v. c #A47953",
"b. c #A26E41",
"n. c #8E7861",
"m. c #917C64",
"M. c #9C7D60",
"N. c #9E8056",
"B. c #AA834A",
"V. c #A68155",
"C. c #AC8255",
"Z. c #A4825C",
"A. c #AC855B",
"S. c #AD895D",
"D. c #AE8E50",
"F. c #B28454",
"G. c #B68B54",
"H. c #B2865A",
"J. c #B38A5C",
"K. c #B98D58",
"L. c #B48D54",
"P. c #96856E",
"I. c #9A856E",
"U. c #9C8469",
"Y. c #9A8671",
"T. c #9C8A72",
"R. c #A48562",
"E. c #AC8660",
"W. c #AC8B63",
"Q. c #AB8C6C",
"!. c #A48B66",
"~. c #B38C63",
"^. c #B98E62",
"/. c #B38E69",
"(. c #B28760",
"). c #AD926C",
"_. c #A5916B",
"`. c #B59165",
"'. c #BB9365",
"]. c #B4936B",
"[. c #BA956B",
"{. c #BC996C",
"}. c #AC8D70",
"|. c #A58D76",
" X c #AD9A74",
".X c #AB947C",
"XX c #AB9675",
"oX c #B39473",
"OX c #B99771",
"+X c #B39A75",
"@X c #BC9B74",
"#X c #B39C7A",
"$X c #BC9C7B",
"%X c #B59679",
"&X c #BDA17D",
"*X c #C29A6E",
"=X c #C19566",
"-X c #C19E74",
";X c #C09E7A",
":X c #C4A175",
">X c #C3A37C",
",X c #C9A67C",
"<X c #C3A97D",
"1X c #CAA87F",
"2X c #C8A176",
"3X c #B49C84",
"4X c #B69F89",
"5X c #AE9780",
"6X c #B6A083",
"7X c #BBA382",
"8X c #BEAA83",
"9X c #BBA58B",
"0X c #B8A38B",
"qX c #BBA691",
"wX c #C4A482",
"eX c #C9A781",
"rX c #C5AA84",
"tX c #CBAB84",
"yX c #C4AC89",
"uX c #CCAD8A",
"iX c #D2AE88",
"pX c #CDB28C",
"aX c #CBB184",
"sX c #D2B38D",
"dX c #D3B492",
"fX c #D5BB94",
"gX c #DABF9A",
"hX c #D8BD97",
"jX c #DAC29B",
"kX c #E1C29C",
/* pixels */
"  - # 5 N q B s F P | l L ) o.D 4.0.L 9.&.8.o.U @.8.;.U P :.T v.;.} ;.,.$.,.2.X.-.[  .X.A 9 7 5 < X ",
". - # q N q V t V P | S T U #.E y.0.| w.8.q.o.+.7.q.7.o.} +.` c.9.+.9.,.:.;.2.%.<.P  .X.A y 7 8 $ X ",
"  - ; q C s F B F P -.L +.o.O.! s.r.&.h.r.r.O.@.8.r.r.O.*.+.) S.h.&.9.g.:.,.l.2.b.| X.X.A i q q 6 O ",
". + > t C d K H U [ ;.R >.@.+./ N.x.>.j.h.v.&.7.t.h.r.7.7.&.` W.j.7.9.g.:.g.k.2.g.O.-.%.A a q q q = ",
". - > u B j K I U -.;.| r.9.&./ V.(.w.x.v.v.8.7.h.t.v.5.7.9.` `.k.0.r.j.w.g.k.,.g.| <.-.A a q 5 q $ ",
"+ : > u H B K U } ,.g.O.v.r.w.' E.^.h.A.A.z.t.0.e.e.a.5.0.*.4.[.A.t.z.x.x.j.l.<.w.+.,.<.[ h y w y $ ",
"+ + > c H G U } } g.l.| x.h.w.' ).{.V.W.(.A.t.r.e.a.r.4.0.0.y.@XS.s.A.x.h.h.j.,.l.&.,.,...h y 9 y 5 ",
"+ + > b H J U o.+.l.l.&.x.z.v.] ).{.Z./.E.~.c.s.s.d.c.y.e.a.p.<XS.Z.~.C.v.x.C.w.k.>.w.2...h y 7 y 5 ",
"+ + 2 u H J o.o.&.l.J.&.v.A.A.] oX-XW.]././.c.c.c.W.Z.p.s.a.f.<X`.Z.[.J.v.x.H.l.l.>.g.3.X.j d y y 5 ",
"# + 2 u ! H #.O.>.l.J.*.t.~.A.] oX-X].OXOX].c.Z.Z.W.Z.d.Z.d.f.<X].E.{.~.x.H.^.C.C.9.g.g.-.V d y y 5 ",
"+ : 2 c ~ H #.@.9.B.K.*.z.'.E.i.XX>XOXOXOXoXc.R.d.!.R.!.R.R.!.<X[.].@XJ.A.J.'.C.F.9.l.l.<.K d y 9 5 ",
"# > 2 b ^ ~ #.@.r.F.=Xw.S.~.E.i. XtX$X>X$XoXf.f.M.U.}.Q.Q.oX_.rXOX@X2X[.^.`.`.C.H.w.l.l.,.P a d w 6 ",
"# : 2 b ^ ( *.@.h.K.=Xz.[.[.[.i.#XaX>XrX$XQ.d.f.f.!.oX}.oX$X+XrX;X;X1X[.[.[.{.C.J.w.x.k.9.P F h 8 6 ",
"# : 3 b Q ( *.7.>.G.'.v.`.[.OXn.#XaX>XrX$XQ.d.p.M.Q.oXoX%X$X XaX>X&X>X@X[.[.-XJ.^.h.F.k.9.U I 9 p 8 ",
"# ; z b W ~ *.0.>.G.'.c.OX@X>Xm.XXpX>XrXoXQ.d.f.f.}.%X$X$XwX&XaX>X>XeX>X@X{.:X`.'.h.C.k.9.P I a p 6 ",
"> > z b W ( *.a.9.J.[.Z.@X>X$XI.XXsXeXrX).Q.R.M.Q.oX$X$X$X$X+XaXwXwXtXeX>X@X>X`.~.C.F.F.9.U K B d 5 ",
"> > z m ! ( 5.r.9.^.*XW.&X&X&X|.#XsXeX>X].OXW.Q.oX%X$X$X$X$X+XyXtXrXtX<X<X@X1X].'.A.A.F.w.o.F B s 6 ",
", > x m W ^ 0.h.>.'.:XW.<X<X<X.X#XdXeX>X].OXoXQ.oX%X$X%X$X>X XyXtXtXeX>X<X@XtX[.[.A.A.F.g.@.I j B 8 ",
"1 > z M Q Q 0.v.w.^.-X/.<XwXrX.XXXdXeX>XOX>X/.Q.oX}.oX$XwX$XXX8XeXwXtX>XeX>XtX[.`.A.(.H.l.@.I V B w ",
", 1 v M _ W e.x.h.[.:X/.<XrXrX.X|.dXeXeXOX].W.Q.Q.Q.oX3XwXwX X7XwXwX>XwXtXeXuX[.'.J.~.J.k.@.I F B w ",
"1 2 x M ^ ^ e.C.z.[.,X].@XrXrX4XT.fXtXeX>X).R.Q.Q.oXoX$X$X;X X&XOX&X$XwXuXeXeX[.`.J.(.H.k.@.I F d w ",
"1 e z M _ Q 0.x.h.[.,X[.OXtXrX3XY.hXpXtX$X].W.Q.oX%X%X$XeX+X_.#XOXwXwXuXuXtXeX-X{.S.(.K.l.+.I J d w ",
", 2 z M ! ! r.j.z.{.:X@X$XsXtX4XY.gXdXtX$XoXQ.oXOX;X;XwXtXrXXX$X%XwXuXfXrXuXuX@X[.S.~.G.k.;.F J d y ",
"1 r z M ! Q e.j.z.{.{.@XoXuXuX4XY.gXdXuX&X+X).OX$XwXwXrXpXpX#XrXwXrXuXdXrXuXeX{.].A.~.K.F.7.I J B y ",
"* 2 r M Q Q e.j.C.[.-X-X).tXuX4XP.jXdXuX&X+XoX$X$XwXrXrXsX#X#XyXuXuXrXrXrXuXuX@X`.S./.K.F.8.I I C s ",
"1 e e M Q Q e.j.C.'.-X:X].tXtX0XP.jXdXuX7X$XoX>XwX$XrXuXuXdXpX&XuXfXrXwXdXtXuX-X].W.~.G.k.@.I F p w ",
", 1 z b Q Q 0.j.C.'.-X2XOXuXeX9XY.gXdXuXwX7X%XwXeXwXuXuXtX+X&X#XyXdXdXrXdXsXtX@X[.W.~.G.B.@.K I p q ",
"& 2 r b E Q e.j.A.'.*X2X@XrX&X0XY.hXdXuX&XwX$X>X>X>XeXeXsXeXrX8XrXdXhXuXdXhXtX@X[.W.S.J.B.+.I H d w ",
"& 3 3 b ! Q e.w.C.'.*X-X@X&X$X0XP.jXdXpXwXwX$X>X>X>X>XeXeXsX8XrXtXpXfXfXkXfXtX-X[.A.S.J.C.O.I J s 6 ",
", 2 2 b E Q 0.9.V.'.*X-XOX@X$XqXP.jXdXuXrXwX&X-X>XeX;XtXsX;X X8XuXpXpXhXgXtXeX-X`.V.S.J.k.) H B y 6 ",
", 2 3 b E Q 0.w.C.^.-X:X{.<X+XqXP.jXdXuXrXwX&X>X>XeX>XtXpXtX#X8XpXpXsXsXsXtX1X-X'.V.E.H.j.) H G w 6 ",
", 2 2 x M ! 5.w.V.^.*X-X[.<XoX0XY.jXdXuXrXwX&X>X1X>XtXtXtXuX8X7XpXsXpX>X>X@X-X[.^.A.E.H.j.T H G s 6 ",
"1 2 2 t E E 5.9.j.J.*X[.].>X].4XI.jXdXdXwXwXrX;XeX>XeXuXuX;X8XyXpXpXuX>X;X@X*X'.A.z.A.C.w.U J n q & ",
"> 1 2 x G G 4.>.w.J.'.(.A.OXoX3XI.jXdXsXwX$XeX@XeX>X>XtXiXtX7X9XuXuXuX>X;X{.*X'.J.s.z.x.w.I J N , O ",
"& 2 2 t E G =.>.9.F.J.[.[.].oX5XI.jXsXuXeX$X>X;XeX>X>XiXtXtX6X9XeXtXsX;X@X[.*XJ.J.t.v.x.9.I B g * # ",
"& > 1 t M D #.&.9.k.=X*X2XW.[..XP.hXsXpX>X>X>X>XeXeX>XuXtXsX3X6X1X>XuX@X-X[.'.H.C.t.r.k.>.K B w * % ",
"% > 1 t M M ) O.&.k.K.'.:X~.]..Xm.dXuXeX>X>X>X;XeXeXeXtXtXiX#X6X1X>X1X@X-X[.J.H.H.t.w.g.&.F n w & O ",
"% # > r m N ( #.>.l.k.J.*XA.W.|.m.pXuX>X&X>X>X;X>XeX>XeX1X1X3X6X:X@X2X].~.J.x.x.j.9.w.1.+.V d w * % ",
"@ > 1 z m N ~ ) O.g.x.H.^.v.E.Y.m.aX,X:X@X@X@X@X-X2X:X>X>X:X7X#X{.OX@X/./.(.j.l.w.>.>.,.&.F s w * * ",
"o # > r m b ~ ~ O.;.h.k.H.v.E.I.n.1X-X-X@X@X[.[.-X-X-X:X@X*XwXXX[.[.[.~.S.S.h.g.g.8.-.:.@.d y q * 1 ",
"@ & , e b x H ~ } } 9.:.&.a.A.m.i.<X{.{.[.[.].].[.{.{.{.{.*XwX).`.(.`.z.V.x.g.g.9.&.&.$.O.a w 4 * 1 ",
"@ & & e b x H J } U @.&.L e.V.f.i.:X[.[.W.W.E./.~.[.'.`.`.'.&X).S.A.^.t.r.r.9.9.;.#.+.+.} f w = & O ",
"@ & & 1 z z H H K U U +.L 5.z.i.u.{.`.W.S.Z.Z.A.H.^.J.J.S.F.OXR.S.x.C.r.>.>.:.,.;.O.|  .U j w * & O ",
". > > 1 z r C d k } { $.| >.s.i.] L.~.V.V.e.a.v.z.J.C.C.C.l.OXN.C.h.h.>.&.O.-.:.+.} R ..U V q 0 & O ",
". > % , z z n p B K | O.} >.e.i.' D.S.z.v.0.e.r.r.x.k.x.l.9.Q.s.j.r.9.-.| } | $...} P [ K V q 0 % % ",
"@ 2 > , e z b w s j U K U ;.4.6.' D.x.r.0.5.0.8.9.9.9.g.9.,.s.p.j.9.9.&.} U | ....P P } Y i w 0 % % ",
"@ @ X , 2 e t t q y H h K *.=.6._ B.r.9.>.#.=.@.&.9.,.9.,.-.a.0.h.@.&.} U P U { P P Y { K a u $ % % ",
"  o o > 2 2 t w 0 t C d k #.=.' _ B.8.>.&.T O.o.O.;.+.:.+. .=.5.>.o.O.P k P P P Y Y K P Z a u * % % ",
"    o # 1 e N n s t 0 ~ k o.) ` _ B.7.8.O.U o.T T +.| -... .` 4.+.} +.L k K Y K k K Z Y k a y * % & ",
"    + # > , d B B w 0 I R I ) ` ( 3.;.*.T I I L L } | +.[ } T =.+.U } K k K k k k k Z K h h q * O % "
};
